<?xml version="1.0" encoding="UTF-8" standalone="no"?>
<svg xmlns:rdf="http://www.w3.org/1999/02/22-rdf-syntax-ns#" xmlns="http://www.w3.org/2000/svg" height="955pt" width="766pt" version="1.1" xmlns:cc="http://creativecommons.org/ns#" xmlns:dc="http://purl.org/dc/elements/1.1/" viewBox="0 0 766 955">
<path d="m295 0h176c0.11 98.31-0.21 196.64 0.15 294.93 98.28 0.17 196.56 0.02 294.85 0.07v175c-98.52 0.38-197.3-0.75-295.66 0.54-0.8 161.42-0.11 322.98-0.34 484.46h-175c-0.08-161.31 0.17-322.64-0.12-483.93-98.29-0.17-196.59-0.02-294.88-0.07v-176c98.28-0.05 196.57 0.1 294.85-0.07 0.36-98.29 0.04-196.62 0.15-294.93m4.52 10.99c13.74 12.96 20.88 44.05 45.7 39.6 16.43 2.63 33.02-0.08 49.49 1.93 7.39 2.29 2.46-7.12 3.92-10.25-22.12-1.84-44.45-0.29-66.47-3.25-11.11-8.41-15.14-31.19-32.64-28.03m50.28 0.24c-2.43 5.99-4.64 33.42 10.08 24.7-2.34-8.42 4.46-28.93-10.08-24.7m51.28 0.94c0.53 24.95 2.3 50.04 0.56 75-3.35 8.48-23.9 17.06-7.92 22.44 5.15-6.96 12.67-11.98 17.28-19.2-1.19-26.12-0.42-52.24-0.13-78.32-2.45 0.02-7.34 0.06-9.79 0.08m49.75 0.09c-12.82 10.74-13.81 40.11-37.5 30.43-4.68 16.5 14.61 8.94 24.73 8.69 6.99-12.85 13.57-26.31 22.29-38.17 1.13-3.74-7.76-0.08-9.52-0.95m-100.48 42.63c1.63 13.46 0.07 27.55 2.01 40.78 14.55 12.09 31.41 21.78 45.61 34.55 3.49 9.99 1.25 20.92 2.25 31.27 20.12 5.05 6.1-23.28 8.15-34.19-13.96-12.49-28.72-24.71-44.1-35.59-8.16-10.4 6.86-40.44-13.92-36.82m-46.56 5.31c16.56 11.35 7.56 37.63 0.65 54.31-15.48 42.3 5.03 87.26 33.38 118.84 12.67 4.05 26.26-0.46 39.25 1.57 8.35-0.98 26.34 5.35 20.61-9.56-19.14-1.48-38.59 1.01-57.65-1.11-14.31-16.64-28-38.75-20.43-61.56 0.35-8.01 6.91-12.23 13.98-13.03 1.53-9.99-18.13-10.2-17.14 0.74-0.28 4.94-6.85 1.09-5.46-2.43-1.73-16.03 21.88-16.38 19.48-32.23-0.73-4.09 6.64-2.1 5.27-5.75-9.42-1.6-15.64 6.32-21.68 10.81-3.45-9.93 8.53-16.33 8.57-26.21-0.97-12.68-2.7-33.42-18.83-34.39m152.31 0.03c-19.95 9.62-17.73 34.21-7.84 50.57 5.76 4.16-2.66 12.37-4.42 5.4-0.79-7.55-11.88-10.71-16.69-6.54 11.4 2.28 3.33 18.09 13.77 21.41 4.94 1.2 8.43 8.01 5.47 12.37-4.08 1.75-6.35-5.45-10.81-3.1-9.35-2.91-12.09 22.95-3.96 11.8 9.64-4.84 18.55 8.34 13.92 17.2 0.6 9.96-12.15 21.66-0.6 28.58 15.8-29.73 20.58-65.61 11.25-98.14-6.35-12.21-6.05-29.8-0.09-39.55m-81.7 57.12c-8.64 4.75-14.28 13.09-22.04 18.96 2.85 27.62 3.91 55.36 2.01 83.06-0.98 5.39 7.59 1.41 10.22 2.22 0.32-27.72-3.39-55.78-0.61-83.23 4.13-6.14 26.4-16.72 10.42-21.01m-31.24 46.03c-10.27 4-23.25 21.49-16.36 33.85 5.61-7.35 8.63-17.62 14.99-23.85 11.89 5.45 11.97-12.41 1.37-10m42.97 1.02c-7.21 2.4-25.61-4.89-18.83 8.78 16.57 0.22 33.38-1.64 49.83-0.33 11.47 20.59 28.1 40.59 29.65 65 0.9 12.35-13.36 16.96-22.13 10.66 0.72 5.43 2.38 13.29 9.4 13.02 4.03 0.74 10.63-11.36 11.46-3 3.38 9.08-6.51 12.35-12.49 15.48-7.42 1.61-3.14 13.02-10.89 14.14 7.7 7.18 16.84-2.81 22.66-5.8-4.71 12.86-11.9 28.54-3.73 42.34 11.65 5.86 26.74 4.08 37.4-3.62 9.35-2.07 3.71 3.67 0.61 6.07-4.98 3.47-5.48 21.56 1.43 12.18 15.22 1.41 11.57-25.02 27.89-18.9 6.25 0.45-2.27 5.07-2.72 7.53-6.12 6.82 6.43 14.77 11.17 12.13-4.76-7.36-2.34-21.02 8.58-20.8 25.67-0.58 46 17.82 67.52 29.2 1.07 16.81-0.45 33.6 0.08 50.43 2.63 0.23 5.28 0.26 7.95 0.06 0.82-18.97-0.31-37.85-0.29-56.71-24.83-9.41-46.09-27.03-71.88-34.22-28.09-6.61-54.97 9.76-82.28 11.48-0.2-22.91 13.36-44.56 12.76-67.89-0.56-32.46-25.3-56.96-35.52-86.18-12.54-0.75-25.07-0.91-37.63-1.05m16.37 11.84c-4.16 27.06 1.5 58.46-1.21 86.93-4.44 7.47-23.45 13.91-8.31 20.8 6.29-4.98 13.85-9.55 17.73-16.74 0.65-29.76-2.76-59.58 0.02-89.35 0.57-4.18-6.78-0.39-8.23-1.64m28.84 30.01c-7.78 5.79-5.45 22.17-17.7 20.25-4.23 10.93 7.64 9.65 13.79 8.65 2.93-8.78 15-22.32 3.91-28.9m-115.05 4.92c-7.02 11.13-10.61 31.85-7.38 41.07-3.55 21.95 17.31 43.68 9.04 65.71-19.56 7.68-38.55-9.53-58.37-8.83-14.17-2.13-33.28-1.59-48.71 7.08 7.4 12.21 24.39-1.72 34.21 6.79 7.69 2.76 8.95 11.2 5.16 17.11 7.46 0.38 15.64-8.01 9.6-14.89-6.03-7.12 7.82-3.77 11.1-1 2.42 9.08 9.18 15.32 18.15 17.72 2.53-4.97 0.47-11.12-2.92-15.28 3.03-4.86 9.21 3.1 13.74 2.59 15.69 3.87 32.9-9.99 29.37-26.5 2.44-5.43-7.98-13.01-2.6-16.52 3.73 3.3 12.06 6.19 14.98 2.2-0.44-14.87-27.02-15.53-19.05-30.44 6.56 8.09 18.13 1.9 17.49-7.74-5.83 3.94-14.74 2.19-17.16-5.25-8.14-9.54 5.42-27.27-6.65-33.82m40.17 28.07c-2.48 7.78-1.69 19.2-2.04 28.55 16.01 14.87 31.89 30.06 46.83 45.91 1.3 8.71-6.05 27.89 9.73 21.77-1.57-8.94 2.27-18.47-2.17-27.05-14.92-16.27-32.01-30.75-44.74-48.91-1.89-7.23 6.7-25.1-7.61-20.27m16.81 55.2c-7.31 4.33-10.85 13.02-18.07 17.75 1.48 14.42 0.88 28.99 0.51 43.45-14.44 0.76-29.04 0.74-43.47-0.48-4.52 7.61-15.83 10.82-17.71 19.37 7.28 11.64 13.91-5.8 20.93-9.2 16.59 0.06 33.39 0.48 50 0.29 0.7-16.76-0.56-34.17 0.2-50.86 4.78-5.92 20.71-15.67 7.61-20.32m-361.9 5.25c-3.83 17.68 20.47 21.18 27.88 33.19 2.53 21.76 1.69 43.81 2.84 65.69 3.34 0.56 6.78-0.09 10.15 0.18-0.26-23.26-0.63-46.69-2.87-69.8-11.31-10.71-27.63-20.73-38-29.26m128.21-0.14c-24.06-0.02-45.02 18.35-69.43 12.45-4.74-0.48-6.85-8-10.02-8.26 0.47 15.18 19.51 16.97 30.98 19.19 11.69 2.4 18.6-12.59 29.69-8.89-4.23 5.84-14.68 14.45-9.15 21.97 0.66-10.36 14.87-2.79 17.8-11.67 2.64-8.23 18-19.82 23.66-9.31-10.69-0.4-15.58 15.66-4.95 18.95 3.88-1.99 2.01-9.85 7.32-11.7 24.12-12.12 50.58 1.29 68.73 17.7 2.24 18.95-0.28 38.48 1.06 57.62 3.27 0.17 10.99 2.9 9.79-2.64-2.2-18.99 1.71-38.24-1.67-57.09-25.86-22.21-58.5-41.5-93.81-38.32m613.94 4.99c-12.4 9.15-26.74 16.1-40.35 23.6 1.18 9.86-5.41 30.08 9.85 22.75-12.84-27.31 38.4-22.65 30.5-46.35m-134.81 1.02c-17.86 1.44-35.45 6.5-51.01 15.49 11.8 13.01 28.43-9.18 42.31 0.79 5.53 3.77 6.78 12.65 0.23 15.63 5.19 4.87 22.05-4.06 13.54-13.33-6.8-8.66 11.7-7.04 10.99 1.01 4.33 9.53 19.32 2.25 21.63 14.12 4.46-7.94-0.69-17-9.1-18.8-1.51-8.29 9.34-2.53 13.09-0.87 14.88 8.62 38.27 7.1 45.49-10.66-13.99 10.23-30.87 3.38-45.6-1.29-13.58-2.87-27.79-2.88-41.57-2.09m-431.27 18.78c-9.86 6.26-29.37 9.91-23.24 25.46 7.88 3.97 10.62-1.27 9.29-8.89 7.92-4.64 15.9-9.27 23.73-14.1-3.18-0.92-6.4-3.24-9.78-2.47m362.97 5.07c-6.57 2.53-13.07 5.28-19.43 8.31-3.23 6.35-0.83 19.46 8.81 13.8-2.33-11.04 11.86-9.52 17.3-15.58 7.34-2.05-3.81-7.23-6.68-6.53m-163.28 10.21c-9.91 0.98-23.68-3.82-17.77 10.92 15.4 0.2 30.78-1.78 46.15-1.35 3.08 15.38-2.1 31.76 0.34 46.84 2.93 1.47 6.51-0.06 9.64 1.18 1.44-18.95 0.38-38.17 0.07-57.01-12.82-0.04-25.61-1.62-38.43-0.58m-46.04 1.46c-2.58 9.17 1.22 13.62 10.58 10.59 3.12-9.47-1.04-13.49-10.58-10.59m-329.64 6.97c-5.04 15.67 15.55 10.76 25.25 11.63 5.01-16.72-16.03-8.62-25.25-11.63m43.45 2.21c-3.89 21.47 27.6 4.91 37.15 14.69 11.14 15.06 22.86 30.43 35.89 43.56 10.77-2.25 38.54 11.73 33.62-8.26-10.46-1.1-21.93 1.07-31.68-2.88-9.47-11.39-18.47-23.2-26.75-35.49-7.95-19.87-32.79-6.13-48.23-11.62m81.55 2.14c-6.09 8.04-15.58 13.88-19.39 23.41 8.15 14.36 14.67-11.34 23.47-12.8 27.04-0.75 54.02 1.87 81.06 1.56-0.44-3.11 3.04-11.74-2.98-10.2-27.39 2.25-54.84 0.13-82.16-1.97m118.49 2.22c-7.64 1.71-20.32-2.94-15.89 10.12 7.02 0.52 14.09-1.99 21.17-0.49 17.72 13.04 32.09 29.82 48.19 44.68 8.5 3.53 19.25 1.72 27.39 1.41 4.66-16.09-14.12-6.26-22.76-9.44-15.15-15.3-30.85-30.29-45.19-46.48-4.3 0.15-8.61 0-12.91 0.2m184.3-0.09c-3.95 0.97-12.04-1.37-9.74 4.91-0.73 13.07 17.45-0.06 23.97 6.05 14.71 15.07 29.99 29.66 44.09 45.4 9.53 1.2 19.05-1.53 28.58-0.17 5.9-13.5-8.15-9.31-16.43-9.13-27.87-7.58-38.82-49.51-70.47-47.06m59.48-0.21c-6.13 5.29-12.84 11.53-16.68 18.55 6.03 13.72 13.31-2.88 19.27-7.76 28.7-3.63 58.42 0.32 87.46-0.35 0.05-2.42 0.15-7.24 0.2-9.65-30.05 1.95-60.17-0.11-90.25-0.79m-98.43 0.88c-2.87 7.23 2.28 13.87 10.19 10.35 3.36-7.18-2.82-13.64-10.19-10.35m203.95 0.02c-5.07 18.99 20.59 5.62 30.1 12.17 13.85 13.59 23.39 31.72 36.1 46.42 13.51 0.12 27.03 0.93 40.57 0.89 0.97-19.83-26.56-5.11-37.13-13.53-11.13-15.31-23.1-30.03-35.78-44.08-11.27-0.74-22.54-2.47-33.86-1.87m70.44 0.02c-7.49 4.03-12.72 11.79-18.68 17.7 6.21 14.25 14.45-4.82 21.55-8.6 25.5-2.14 51.22-0.58 76.78 0.35-0.13-2.36-0.37-7.07-0.49-9.43-26.38 0.31-52.78-0.5-79.16-0.02m-509.83 10.96c-0.72 19.21-0.2 38.45 0.56 57.62 27.04 9.35 49.65 30.87 78.76 35.07 25.93 3.46 49.93-12.45 75.22-12.45-0.3 23.04-14.11 44.98-12.85 68.69 0.93 32.13 25.42 56.42 35.63 85.52 17.19 0.17 34.46 1.02 51.76 0.4 8.31 4.15 3.79-5.39 5.01-8.02-16.76-0.18-33.45 0.42-50.2 0.13-12.11-22.7-32.88-44.95-28.73-72.52 4.92-7.58 14.07-6.96 20.88-3.85 0.85-11.39-12.44-17.79-18.42-6.24-5.63-2.17-2.41-16.08 5.63-16.53 10.07-1.14 8.76-12.51 14.61-17.17-7.85-10.19-25.44 17.19-20.52-0.33 7.43-10.13 7.81-24.56 2.49-35.44-13.61-8.45-29.52-0.8-42.31 3.69 2.75-5.92 13.06-14.96 5.78-22.63-1.01 5.95-8.2 5.23-12.36 7.58-4.44 6.4-6.6 19.56-17.18 15.71-8.51-0.56 3.62-7.38 2.92-11.38 0.27-7.02-7.59-8.68-13.02-9.4 6.07 8.3 2.1 21.34-8.92 22.02-25.13-0.32-45.69-17.98-66.74-29.54-1.31-16.41 0.61-33.21 0.41-49.76-2.77-0.65-5.55-1.46-8.41-1.17m367.48 0.98c-4.87 16.83 0.98 40.94-1.21 60.03 12.45 10.94 26.23 20.27 41.18 27.45 28.14 16.49 63.67 14.1 92.96 1.63 13.17-6.12 31.53-6.38 40.73 5.36-3.63-17.21-28.9-21.61-43.22-15.83-5.7 1.47-13.43 11.61-17.52 4.45 6.5-4.51 10.89-12.03 10.54-20.22-3.76 0.14-3.1 6.1-7.46 5.42-13.91-1.4-14.3 18.41-27.92 18.95-5.87 3.91-10.6-4.99-3.5-5.45 10.23-1.76 8.5-16.81-0.98-17.77-0.71 5.53-2.23 12.04-8.55 13.21-24.02 11.02-48.36-3.58-66.24-18.92-0.43-17.33-0.86-34.62-0.59-51.95 1.06-5.15-3.94-6.91-8.22-6.36m181.16-0.82c-0.53 23.25 0.58 46.61 2.44 69.7 10.69 12.43 27.39 17.84 37.6 31.11 5.43-18.18-19.33-22.62-27.45-34.48-2.34-21.76-1.39-43.61-2.35-65.43-2.56-0.23-7.68-0.68-10.24-0.9m-373.53 1.88c-0.95 19.11-0.33 38.12 0.22 57.23 18.86 0.9 38.11 0.84 57.09 0.09-1.45-3.35 0.48-7.31-1.59-10.36-15.52-0.78-30.96 2.77-46.38 0.44-0.38-15.37 1.24-30.86 1.33-46.28-3.53-0.62-7.1-1.08-10.67-1.12m303.24 16.13c-6.36 5.6-10.8 13.64-17.67 18.54-27.16 0.06-54.23-1.91-81.45-1.81 0.04 2.46 0.11 7.38 0.14 9.84 28.43-1.51 56.76-0.03 84.98 1.86 5.33-8.41 27.96-20.35 14-28.43m-538.81 2.02c-6.58 4.11-10.26 11.69-17.25 15.23-24.89 1.65-49.96-0.13-74.86-0.5-0.05 2.42-0.14 7.27-0.19 9.69 26.53-0.96 53.32-0.05 79.82-0.31 4.37-7.91 26.04-15.73 12.48-24.11m172.71-0.31c-4.26 5.74-9.12 11.05-14.59 15.65-26.77 0.2-53.42 0.26-80.22-1.15-7.18-2.43-7.82 6.31-5.41 10.25 29.75-3 59.46 0.79 89.25 0.23 6.97-5.09 26.55-18.06 10.97-24.98m188.13 0.32c-5.94 3.81-9.2 10.93-15.63 14.01-16.5 0.17-33.01-0.79-49.53-0.34-0.42 16.5 0.49 33.01 0.37 49.48-2.33 6.95-12.51 9.98-13.88 16.97 8.3 12.04 15-8.14 22.57-11.54 3.51-14.04-1.7-29.89 1.24-44.52 14.66-3.04 31.2 2.71 44.96-1.93 4.24-6.67 24.19-16.02 9.9-22.13m-109.93 13.8c-2.58 6.88 2.26 14.34 10.13 10.38 3.54-7.57-2.69-13.56-10.13-10.38m373.25 5.57c-5.42 15.9 17.88 10.53 25.31 10.18 4.65-15.64-17.03-7.45-25.31-10.18m-685.69 7.52c13.34 29.06-36.76 22.78-30.41 47.51 12.04-9.21 26.77-15.5 39.26-23.32-0.07-9.91 6.84-28.14-8.85-24.19m184.42 0.11c0.92 11.47-15.46 10.69-21.15 18.52 8.11 10.24 20.53-1.61 29.48-4.94-0.32-6.3 2.1-16.68-8.33-13.58m189.27-0.02c-5.69 1.9-5.38 15.15 2.59 11.64 10.49 2.46 7.62-17.71-2.59-11.64m176.73 1.97c-3.02 2.9 0.71 11.13-5.9 12.16-4.19 4.55-27.71 10.52-11.97 14.04 9.27-1.3 17.09-8.82 25.71-12.6 3.22-5.71 1.72-17.47-7.84-13.6m-117.2 8.93c-3.34 5.61 2.33 10.25 2.74 15.49-4.89 3.53-10.05-5.22-15.87-3.85-20.88-3.45-35.56 23.5-22.33 39.68-0.22 8.67-12.9-6.04-16.32 1.23 1.38 8.47 6.98 15.19 15.49 17.24 4.58 1.44 8.21 17.9 0.98 12.09-6.33-5.96-16.9 2.03-14.78 9.44 9.89-8.01 22.08 6.59 19.38 16.96-0.91 7.34-2.87 17.95 3.31 22.26 10.59-15.38 10.65-36.06 7.35-53.91-0.93-17.89-15.31-34.45-9.03-52.63 7.43-5.78 17.47-1.24 25.74-0.1 25.86 9.92 57.47 15.85 82.23 0.7-6.09-8.37-18.72-2.02-27.38-3.36-8.33-0.61-19.47-11.04-11.77-18.81-7.08-4.65-15.87 8.06-9.67 14.08 5.95 7.27-10.61 3.49-12.09-1-2.04-8.73-9.28-14.56-17.98-15.51m-367.19 2.74c-2.34 6.55-0.64 15.53 7.38 16.82 6.83 1.9-1.35 10.07-5.47 4.42-16.38-10.35-41.95-11.86-50.98 8.55 15.72-11.38 33.95-1.97 50.3 2.19 29.86 4.45 61.33 0.37 88.04-14.06-7.89-11.89-19.72 2-30.38 0.98-11.28 5.22-23.99-11.72-11.6-18.44-9.3-4.57-21.72 6.78-13.57 14.98 4.67 7.16-9.33 5.82-10.63 0.5-2.58-12.76-19.61-4.51-23.09-15.94m246.84 2.23c-1.23 10.68-4.35 25.83 6.07 33.06 13.06 14.6 28.71 27.2 39.37 43.71 1.94 8.61-5.47 25.57 9.42 20.27-0.73-9.5 1.36-19.05 0.29-28.56-14.44-13.01-27.74-27.29-41.97-40.5-11.73-7.16 4.85-30.11-13.18-27.98m16.22 53.07c-6.94 6.43-20.06 12.18-17.39 23.41 1.2 26.82 1.9 53.7 0.77 80.51-2.2 5.78 7.01 1.35 9.47 2.6-0.12-28.9-2.42-58.19-0.1-86.91 4.7-6.08 22.8-15.36 7.25-19.61m-33.81 48.04c-3.02 9.5-13.67 19.99-5.03 29.43 8.8-4.68 6.08-22.59 18.66-20.72 4.6-9.44-6.68-10.18-13.63-8.71m30.45-0.31c-2.87 3.14-1.81 11.13 3.55 10.43 17.95 0.1 36.12-0.16 53.83 1.17 14.09 17.16 28.8 39.63 19.48 62.77-0.87 7.69-7.05 11.26-14.28 11.51 0.8 9.86 16.3 10.98 17.65 0.8 0.66-7.23 9.57-1.75 5.61 3.66-0.66 13.52-20.36 14.02-18.96 27.94 0.67 4.36-5.26 3.7-5.43 7.46 8.52 0.44 15.96-4.27 20.92-10.81 5.68 6.74-5.68 14.29-3.94 22.03-1.8 19.28-17.09 40.81-2.77 58.25 7.07-26.24 9.5-53.7 18.57-79.41 12.83-41.74-8.46-84.8-36.13-114.78-19.38 0.03-38.76-0.13-58.1-1.02m32.51 14.04c0.25 19.18 0.84 38.32 1.67 57.49-2.05 9.27 5.01 21.94-3.95 28.38-4.79 4.56-9.89 8.76-14.85 13.12 8.99 14.16 20.2-9.24 28.83-13.57-2.33-28.28-3.05-56.75-1.9-85.23-2.45-0.04-7.35-0.14-9.8-0.19m-80.05 23.61c-18.55 32.18-20.29 72.29-9.39 107.35 9.12 38.09 17.65 76.34 26.92 114.39 18.28 0.79 36.88 1.56 55.31 0.56 7.85 4.02 4.15-5.36 5.03-7.94-16.62 0.08-33.16 0.44-49.77 0.54-2.17-0.36-2.37-3.01-3.09-4.66-10.45-43.21-21.33-87.25-29.53-130.46 7.25 0.28 11.58 17.62 22.42 8.76-11.36-3.49-5.05-20.07-16.87-23.46-6.07-1.57-4.64-15.37 2.07-9 9 8.12 18.25-8.31 13.33-13.54-3.16 6.88-12.37 4.97-16.14-0.72-9.16-13.93 12.7-30.15-0.29-41.82m117.23 1.4c-7.58 7.91-8.44 25.86-22.54 23.33-6.4 12.38 14.36 13.84 16.21 3.33 3.19-8.17 15.25-19.06 6.33-26.66m-83.07 35.02c-0.08 11.33 1.43 22.67 1.83 34.03 14.23 12.43 28.78 24.53 44.08 35.67 9.37 10.33-6.84 38.72 13.54 37.21-3.18-16.82 8.33-41.77-12.32-49.41-12.01-10.09-29.06-17.1-35.96-31.19-4.36-9.09 6.71-31.46-11.17-26.31m17.15 52.24c-5.98 5.7-12.62 11.28-17.15 18.17-0.55 34.63 0.72 69.3 0.14 103.87 2.92 0.11 7.62 1.68 9.44-0.81 0.46-33.47-3.65-67.17-0.12-100.58 4.89-6.37 22.12-16.81 7.69-20.65m-38.2 56.49c-2.27 11.44 9.96 11.31 17.62 10.09 5.63-14.34-9.22-9.61-17.62-10.09m32.29 0.5c0.22 2.57 0.67 7.71 0.9 10.28 21.31 1.19 42.73-0.05 63.96 2.83 6.32 23.15 23.7 46.31 13.17 70.97-1.04 6.23-8.54 5.96-12.44 8.63 0.21 9.92 17.85 9 17.42-1.57 1.59-6.18 9.14 2.1 4.95 5.74-0.82 13.71-20.48 13.66-19.15 27.9 0.98 4.36-5.77 3.45-5 6.93 6.67-0.25 15.1-1.88 17.97-8.8 2.72-5.62 6.7 2.93 3.63 5.47-12.55 14.33-10.11 37.7 2.49 51.17 1.37 2.11 10.44 3.58 5.94-0.14-12.8-8.67-7.73-26.4-3.99-38.49 11.81-26.84 14.05-58.44 1.95-85.52-8.75-17.19-12.2-36.81-22.85-53.08-22.93-1.5-45.9-2.78-68.95-2.32m39.65 15.12c-4.41 26.24-0.8 55.49-2.35 82.85-3.98 9.02-12.59 14.4-19.59 20.82 8.37 15.03 19.63-8.39 27.8-12.43 0.8-30 1.06-61.04 3.72-91.4-3.2 0.04-6.39 0.09-9.58 0.16m-85.06 2.52c-6.34 34.01-18.83 67.78-15.35 102.84-0.95 20.7 17.25 41.84 3.34 61.19 17.19-7.17 18.93-29.25 11.02-44.07-2.03-3.48-7.58-15.65 0.49-14.58 1.7 8.03 11.72 14.37 18.33 8.93-12.76-1.83-3.47-19.95-15.73-22.46-6.61-0.88-6.33-16.37 0.84-9.85 8.69 7.5 19.04-7.56 13.57-13.83-3.3 8.82-14.84 3.86-17.58-2.6-1.67-21.83 11.29-45.01 1.07-65.57m109.87 8.25c-1.67 13.45-5.21 26.57-7.69 39.88-0.22 6.25-12.36-0.89-7.78 8.37 0.07 6.65 16.97 5.67 14.2-2.86 0.71-14.14 12.44-34.09 1.27-45.39m-74.7 54.02c0.57 12.26-5.31 33.05 8.53 41.03 12.61 10.44 25.64 21.08 38.29 30.98 5.33 10.48-7.44 38.35 11.73 34.41-0.85-13.77 0.26-27.94-1.91-41.4-15.04-10.58-30.23-21.17-44.42-32.8-7.91-8.85 4.77-34.73-12.22-32.22m16.03 51.98c-5.6 6.1-11.69 12.05-17.06 18.23-0.53 26.42 0.18 52.89 0.14 79.3 2.33 0.12 7 0.36 9.33 0.47-0.94-24.73-2.63-49.64-0.38-74.31 0.6-9.17 25.21-17.75 7.97-23.69m-37.13 57.22c-15.65 3.59-17.5 26.2-28.43 37.1-4.55 5.99 4.91 3.25 8.4 3.14 6.94-8.84 12.67-18.68 17.85-28.65 4.6-6.75 20.91 4.27 19.04-7.11 2-9.79-10.93-3.01-16.86-4.48m31.4-0.01c0.17 2.54 0.51 7.62 0.67 10.16 22.13 1.79 44.52 0.7 66.6 3.33 10.14 9.34 17.28 33.37 33.1 26.48-12.53-10.5-18.61-26.28-30.51-37.25-23.28-1.96-46.55-1.64-69.86-2.72m39.8 15.69c2.8 7.89-6.02 31.58 10.3 25.37-1.17-8.72 4.97-29.73-10.3-25.37z"/>
</svg>
